<mxfile host="app.diagrams.net" modified="2023-07-05T10:18:26.241Z" agent="Mozilla/5.0 (Windows NT 10.0; Win64; x64) AppleWebKit/537.36 (KHTML, like Gecko) Chrome/114.0.0.0 Safari/537.36 Edg/114.0.1823.67" etag="B3g2XvPZMek6qL5Gvjsz" version="21.5.2" type="device">
  <diagram name="第 1 页" id="amgvbtfpD5c7mr5i8vl2">
    <mxGraphModel dx="392" dy="1156" grid="0" gridSize="10" guides="1" tooltips="1" connect="1" arrows="1" fold="1" page="0" pageScale="1" pageWidth="827" pageHeight="1169" math="0" shadow="0">
      <root>
        <mxCell id="0" />
        <mxCell id="1" parent="0" />
        <mxCell id="7Dq5Ay2CCi1CjYVmZKPr-1" value="提取内部值" style="rounded=0;whiteSpace=wrap;html=1;fontSize=14;fillColor=#f5f5f5;strokeColor=#666666;fontColor=#333333;" parent="1" vertex="1">
          <mxGeometry x="750" y="230" width="80" height="140" as="geometry" />
        </mxCell>
        <mxCell id="7Dq5Ay2CCi1CjYVmZKPr-8" value="引用适配" style="rounded=0;whiteSpace=wrap;html=1;fontSize=14;fillColor=#f5f5f5;strokeColor=#666666;fontColor=#333333;" parent="1" vertex="1">
          <mxGeometry x="750" y="160" width="77" height="70" as="geometry" />
        </mxCell>
        <mxCell id="7Dq5Ay2CCi1CjYVmZKPr-9" value="转换内部值" style="rounded=0;whiteSpace=wrap;html=1;fontSize=14;fillColor=#f5f5f5;strokeColor=#666666;fontColor=#333333;" parent="1" vertex="1">
          <mxGeometry x="750" y="370" width="80" height="140" as="geometry" />
        </mxCell>
        <mxCell id="7Dq5Ay2CCi1CjYVmZKPr-16" value="布尔运算" style="rounded=0;whiteSpace=wrap;html=1;fontSize=14;fillColor=#f5f5f5;strokeColor=#666666;fontColor=#333333;" parent="1" vertex="1">
          <mxGeometry x="750" y="510" width="77" height="40" as="geometry" />
        </mxCell>
        <mxCell id="7Dq5Ay2CCi1CjYVmZKPr-17" value="链式调用" style="rounded=0;whiteSpace=wrap;html=1;fontSize=14;fillColor=#f5f5f5;strokeColor=#666666;fontColor=#333333;" parent="1" vertex="1">
          <mxGeometry x="750" y="550" width="77" height="40" as="geometry" />
        </mxCell>
        <mxCell id="7Dq5Ay2CCi1CjYVmZKPr-18" value="迭代聚合" style="rounded=0;whiteSpace=wrap;html=1;fontSize=14;fillColor=#f5f5f5;strokeColor=#666666;fontColor=#333333;" parent="1" vertex="1">
          <mxGeometry x="750" y="690" width="77" height="50" as="geometry" />
        </mxCell>
        <mxCell id="7Dq5Ay2CCi1CjYVmZKPr-19" value="expect, unwrap,&lt;br style=&quot;font-size: 14px;&quot;&gt;&lt;font color=&quot;#ff3333&quot; style=&quot;font-size: 14px;&quot;&gt;expect_err, unwrap_err&lt;br style=&quot;font-size: 14px;&quot;&gt;&lt;/font&gt;unwrap_or, unwrap_or_default,&lt;br style=&quot;font-size: 14px;&quot;&gt;&amp;nbsp;unwrap_or_else" style="whiteSpace=wrap;html=1;rounded=0;align=left;spacingLeft=10;fontSize=14;" parent="1" vertex="1">
          <mxGeometry x="490" y="230" width="260" height="70" as="geometry" />
        </mxCell>
        <mxCell id="7Dq5Ay2CCi1CjYVmZKPr-21" value="iter, iter_mut, into_iter" style="whiteSpace=wrap;html=1;rounded=0;align=left;spacingTop=0;spacingLeft=10;fontSize=14;" parent="1" vertex="1">
          <mxGeometry x="490" y="300" width="260" height="70" as="geometry" />
        </mxCell>
        <mxCell id="7Dq5Ay2CCi1CjYVmZKPr-23" value="map&lt;br style=&quot;font-size: 14px;&quot;&gt;map_or, map_or_else&lt;br style=&quot;font-size: 14px;&quot;&gt;&lt;font color=&quot;#ff0000&quot; style=&quot;font-size: 14px;&quot;&gt;map_error&lt;/font&gt;" style="whiteSpace=wrap;html=1;fontSize=14;rounded=0;align=left;spacingLeft=10;" parent="1" vertex="1">
          <mxGeometry x="490" y="370" width="260" height="70" as="geometry" />
        </mxCell>
        <mxCell id="7Dq5Ay2CCi1CjYVmZKPr-25" value="&lt;font color=&quot;#ff00ff&quot; style=&quot;font-size: 14px;&quot;&gt;ok&lt;br style=&quot;font-size: 14px;&quot;&gt;err&lt;/font&gt;&lt;br style=&quot;font-size: 14px;&quot;&gt;transpone" style="whiteSpace=wrap;html=1;fontSize=14;rounded=0;align=left;spacingLeft=10;" parent="1" vertex="1">
          <mxGeometry x="490" y="440" width="260" height="70" as="geometry" />
        </mxCell>
        <mxCell id="7Dq5Ay2CCi1CjYVmZKPr-27" value="and, or" style="whiteSpace=wrap;html=1;fontSize=14;rounded=0;align=left;spacingLeft=10;" parent="1" vertex="1">
          <mxGeometry x="490" y="510" width="260" height="40" as="geometry" />
        </mxCell>
        <mxCell id="7Dq5Ay2CCi1CjYVmZKPr-28" value="and_then, or_else" style="whiteSpace=wrap;html=1;fontSize=14;rounded=0;align=left;spacingLeft=10;" parent="1" vertex="1">
          <mxGeometry x="490" y="550" width="260" height="40" as="geometry" />
        </mxCell>
        <mxCell id="7Dq5Ay2CCi1CjYVmZKPr-31" value="as_ref, as_mut&lt;br style=&quot;font-size: 14px;&quot;&gt;as_deref, as_deref_mut" style="whiteSpace=wrap;html=1;fontSize=14;rounded=0;align=left;spacingLeft=10;" parent="1" vertex="1">
          <mxGeometry x="490" y="160" width="260" height="70" as="geometry" />
        </mxCell>
        <mxCell id="7Dq5Ay2CCi1CjYVmZKPr-38" value="枚举判断" style="rounded=0;whiteSpace=wrap;html=1;fontSize=14;fillColor=#f5f5f5;strokeColor=#666666;fontColor=#333333;" parent="1" vertex="1">
          <mxGeometry x="750" y="590" width="77" height="50" as="geometry" />
        </mxCell>
        <mxCell id="7Dq5Ay2CCi1CjYVmZKPr-40" value="&lt;font color=&quot;#cc00cc&quot; style=&quot;font-size: 14px;&quot;&gt;is_ok, is_err&lt;br style=&quot;font-size: 14px;&quot;&gt;is_ok_and, is_err_and&lt;/font&gt;" style="whiteSpace=wrap;html=1;fontSize=14;rounded=0;align=left;spacingLeft=10;" parent="1" vertex="1">
          <mxGeometry x="490" y="590" width="260" height="50" as="geometry" />
        </mxCell>
        <mxCell id="bYXj-CY89ZHavtTn7qV5-1" value="as_ref, as_mut&lt;br style=&quot;font-size: 14px;&quot;&gt;as_deref, as_deref_mut&lt;br style=&quot;font-size: 14px;&quot;&gt;&lt;font color=&quot;#ff3333&quot; style=&quot;font-size: 14px;&quot;&gt;as_pin_ref, as_pin_mut&lt;/font&gt;" style="whiteSpace=wrap;html=1;fontSize=14;rounded=0;align=left;spacingLeft=10;" vertex="1" parent="1">
          <mxGeometry x="827" y="160" width="263" height="70" as="geometry" />
        </mxCell>
        <mxCell id="bYXj-CY89ZHavtTn7qV5-2" value="expect, unwrap,&lt;br style=&quot;font-size: 14px;&quot;&gt;unwrap_or, unwrap_or_default,&lt;br style=&quot;font-size: 14px;&quot;&gt;&amp;nbsp;unwrap_or_else" style="whiteSpace=wrap;html=1;rounded=0;align=left;spacingLeft=10;fontSize=14;" vertex="1" parent="1">
          <mxGeometry x="827" y="230" width="263" height="70" as="geometry" />
        </mxCell>
        <mxCell id="bYXj-CY89ZHavtTn7qV5-3" value="iter, iter_mut, into_iter" style="whiteSpace=wrap;html=1;rounded=0;align=left;spacingTop=0;spacingLeft=10;fontSize=14;" vertex="1" parent="1">
          <mxGeometry x="827" y="300" width="263" height="70" as="geometry" />
        </mxCell>
        <mxCell id="bYXj-CY89ZHavtTn7qV5-4" value="map&lt;br style=&quot;font-size: 14px;&quot;&gt;map_or, map_or_else&lt;br style=&quot;font-size: 14px;&quot;&gt;&lt;font color=&quot;#ff0000&quot; style=&quot;font-size: 14px;&quot;&gt;filter, flatten&lt;br style=&quot;font-size: 14px;&quot;&gt;zip, zip_with&lt;br style=&quot;font-size: 14px;&quot;&gt;&lt;/font&gt;" style="whiteSpace=wrap;html=1;fontSize=14;rounded=0;align=left;spacingLeft=10;" vertex="1" parent="1">
          <mxGeometry x="827" y="370" width="263" height="70" as="geometry" />
        </mxCell>
        <mxCell id="bYXj-CY89ZHavtTn7qV5-5" value="&lt;font color=&quot;#cc00cc&quot; style=&quot;font-size: 14px;&quot;&gt;ok_or&lt;br style=&quot;font-size: 14px;&quot;&gt;ok_or_else&lt;/font&gt;&lt;br style=&quot;font-size: 14px;&quot;&gt;transpone" style="whiteSpace=wrap;html=1;fontSize=14;rounded=0;align=left;spacingLeft=10;" vertex="1" parent="1">
          <mxGeometry x="827" y="440" width="263" height="70" as="geometry" />
        </mxCell>
        <mxCell id="bYXj-CY89ZHavtTn7qV5-7" value="Iterator&amp;lt;Option&amp;lt;T&amp;gt;&amp;gt; -&amp;gt; Option&amp;lt;&lt;font color=&quot;#ff3333&quot; style=&quot;font-size: 14px;&quot;&gt;T&lt;/font&gt;&amp;gt;" style="whiteSpace=wrap;html=1;fontSize=14;rounded=0;align=left;spacingLeft=10;" vertex="1" parent="1">
          <mxGeometry x="827" y="690" width="263" height="50" as="geometry" />
        </mxCell>
        <mxCell id="bYXj-CY89ZHavtTn7qV5-9" value="&lt;font color=&quot;#cc00cc&quot; style=&quot;font-size: 14px;&quot;&gt;is_some, is_none&lt;br style=&quot;font-size: 14px;&quot;&gt;is_some_and, is_none_and&lt;/font&gt;" style="whiteSpace=wrap;html=1;fontSize=14;rounded=0;align=left;spacingLeft=10;" vertex="1" parent="1">
          <mxGeometry x="827" y="590" width="263" height="50" as="geometry" />
        </mxCell>
        <mxCell id="bYXj-CY89ZHavtTn7qV5-10" value="分类" style="rounded=0;whiteSpace=wrap;html=1;fontSize=14;fillColor=#E6E6E6;strokeColor=#666666;fontColor=#333333;align=center;fontStyle=1" vertex="1" parent="1">
          <mxGeometry x="750" y="90" width="77" height="70" as="geometry" />
        </mxCell>
        <mxCell id="bYXj-CY89ZHavtTn7qV5-11" value="Result" style="whiteSpace=wrap;html=1;fontSize=14;rounded=0;align=center;spacingLeft=10;fillColor=#E6E6E6;fontStyle=1" vertex="1" parent="1">
          <mxGeometry x="490" y="90" width="260" height="70" as="geometry" />
        </mxCell>
        <mxCell id="bYXj-CY89ZHavtTn7qV5-12" value="Option" style="whiteSpace=wrap;html=1;fontSize=14;rounded=0;align=center;spacingLeft=10;fillColor=#E6E6E6;fontStyle=1" vertex="1" parent="1">
          <mxGeometry x="827" y="90" width="263" height="70" as="geometry" />
        </mxCell>
        <mxCell id="bYXj-CY89ZHavtTn7qV5-13" value="and_then, or_else" style="whiteSpace=wrap;html=1;fontSize=14;rounded=0;align=left;spacingLeft=10;" vertex="1" parent="1">
          <mxGeometry x="827" y="550" width="263" height="40" as="geometry" />
        </mxCell>
        <mxCell id="bYXj-CY89ZHavtTn7qV5-14" value="expect, unwrap,&lt;br style=&quot;font-size: 14px;&quot;&gt;&lt;font color=&quot;#ff3333&quot; style=&quot;font-size: 14px;&quot;&gt;expect_err, unwrap_err&lt;br style=&quot;font-size: 14px;&quot;&gt;&lt;/font&gt;unwrap_or, unwrap_or_default,&lt;br style=&quot;font-size: 14px;&quot;&gt;&amp;nbsp;unwrap_or_else" style="whiteSpace=wrap;html=1;rounded=0;align=left;spacingLeft=10;fontSize=14;" vertex="1" parent="1">
          <mxGeometry x="490" y="230" width="260" height="70" as="geometry" />
        </mxCell>
        <mxCell id="bYXj-CY89ZHavtTn7qV5-15" value="iter, iter_mut, into_iter" style="whiteSpace=wrap;html=1;rounded=0;align=left;spacingTop=0;spacingLeft=10;fontSize=14;" vertex="1" parent="1">
          <mxGeometry x="490" y="300" width="260" height="70" as="geometry" />
        </mxCell>
        <mxCell id="bYXj-CY89ZHavtTn7qV5-16" value="and, or,&lt;font color=&quot;#cc00cc&quot; style=&quot;font-size: 14px;&quot;&gt; xor&lt;/font&gt;" style="whiteSpace=wrap;html=1;fontSize=14;rounded=0;align=left;spacingLeft=10;" vertex="1" parent="1">
          <mxGeometry x="827" y="510" width="263" height="40" as="geometry" />
        </mxCell>
        <mxCell id="bYXj-CY89ZHavtTn7qV5-18" value="复制" style="rounded=0;whiteSpace=wrap;html=1;fontSize=14;fillColor=#f5f5f5;strokeColor=#666666;fontColor=#333333;" vertex="1" parent="1">
          <mxGeometry x="750" y="640" width="77" height="50" as="geometry" />
        </mxCell>
        <mxCell id="bYXj-CY89ZHavtTn7qV5-19" value="&lt;font style=&quot;font-size: 14px;&quot;&gt;copied, cloned&lt;/font&gt;" style="whiteSpace=wrap;html=1;fontSize=14;rounded=0;align=left;spacingLeft=10;fontColor=#000000;" vertex="1" parent="1">
          <mxGeometry x="490" y="640" width="260" height="50" as="geometry" />
        </mxCell>
        <mxCell id="bYXj-CY89ZHavtTn7qV5-20" value="Iterator&amp;lt;Result&amp;lt;T,E&amp;gt;&amp;gt; -&amp;gt; Result&amp;lt;&lt;font style=&quot;border-color: var(--border-color); font-size: 14px;&quot; color=&quot;#ff3333&quot;&gt;T&lt;/font&gt;&lt;span style=&quot;font-size: 14px;&quot;&gt;, E&amp;gt;&lt;/span&gt;" style="rounded=0;whiteSpace=wrap;html=1;align=left;spacingLeft=10;fontSize=14;" vertex="1" parent="1">
          <mxGeometry x="490" y="690" width="260" height="50" as="geometry" />
        </mxCell>
        <mxCell id="bYXj-CY89ZHavtTn7qV5-21" value="&lt;font style=&quot;font-size: 14px;&quot;&gt;copied, cloned&lt;/font&gt;" style="whiteSpace=wrap;html=1;fontSize=14;rounded=0;align=left;spacingLeft=10;fontColor=#000000;" vertex="1" parent="1">
          <mxGeometry x="827" y="640" width="263" height="50" as="geometry" />
        </mxCell>
        <mxCell id="bYXj-CY89ZHavtTn7qV5-22" value="原地更新" style="rounded=0;whiteSpace=wrap;html=1;fontSize=14;fillColor=#f5f5f5;strokeColor=#666666;fontColor=#333333;" vertex="1" parent="1">
          <mxGeometry x="750" y="740" width="77" height="90" as="geometry" />
        </mxCell>
        <mxCell id="bYXj-CY89ZHavtTn7qV5-23" value="insert, get_or_insert, &lt;br style=&quot;font-size: 14px;&quot;&gt;get_or_insert_default, get_or_insert_with&lt;br style=&quot;font-size: 14px;&quot;&gt;take, replace" style="whiteSpace=wrap;html=1;fontSize=14;rounded=0;align=left;spacingLeft=10;" vertex="1" parent="1">
          <mxGeometry x="827" y="740" width="263" height="90" as="geometry" />
        </mxCell>
        <mxCell id="bYXj-CY89ZHavtTn7qV5-24" value="无" style="rounded=0;whiteSpace=wrap;html=1;fontSize=14;" vertex="1" parent="1">
          <mxGeometry x="490" y="740" width="260" height="90" as="geometry" />
        </mxCell>
      </root>
    </mxGraphModel>
  </diagram>
</mxfile>
